# xmcd CD database file
#
# Track frame offsets:
#	150
#	13768
#	30447
#	42396
#	58281
#	71035
#	85753
#	97692
#	113264
#	129100
#
# Disc length: 1903 seconds
#
# Revision: 0
# Processed by: cddbd v1.5.2PL0 Copyright (c) Steve Scherf et al.
# Submitted via: CDex 1.51
#
DISCID=71076d0a
DTITLE=Justin Moore - Justin Moore
DYEAR=2009
DGENRE=Country
TTITLE0=How I Got To Be This Way
TTITLE1=Small Town USA
TTITLE2=Backwoods
TTITLE3=Like There's No Tomorrow
TTITLE4=Good Ole American Way
TTITLE5=I Could Kick Your Ass
TTITLE6=Back That Think Up
TTITLE7=Only Place That I Call Home
TTITLE8=Grandpa
TTITLE9=Hank It
EXTD=YEAR: 2009
EXTT0=
EXTT1=
EXTT2=
EXTT3=
EXTT4=
EXTT5=
EXTT6=
EXTT7=
EXTT8=
EXTT9=
PLAYORDER=
